<svg xmlns="http://www.w3.org/2000/svg" viewBox="0 0 100 125"><path fill="none" d="M87.5 73.535L83.963 70l5.796-5.796c-.058-.905-.13-1.812-.214-2.716L87.5 63.535 83.963 60l4.72-4.72c-.157-.814-.33-1.617-.524-2.405l-.66.66L83.964 50l2.453-2.453c-.293-.685-.606-1.348-.948-1.98l-2.97 2.97-2.5-2.5-2.5 2.5L73.963 45l5.704-5.705c-1.73-.993-3.745-1.607-6.09-1.752L76.034 40 72.5 43.536l-2.5-2.5-2.5 2.5L63.962 40l2.46-2.46c-2.285.136-4.322.71-6.116 1.73L66.035 45 62.5 48.536l-2.5-2.5-2.5 2.5-2.984-2.983c-.336.624-.658 1.274-.957 1.972L56.034 50 52.5 53.535l-.69-.688c-.073.3-.132.604-.2.906l.91.912c2.073 2.072 3.52 4.62 4.3 7.478L60 58.965 66.035 65 62.5 68.535l-2.5-2.5-2.5 2.5-.035-.034c-.03.547-.07 1.097-.14 1.653-.076.6-.19 1.198-.31 1.795l2.983-2.983L66.035 75 62.5 78.535l-2.5-2.5-2.5 2.5-1.897-1.896c-.276.677-.586 1.346-.92 2.008L56.036 80l-2.715 2.714c.407.564.848 1.1 1.318 1.61l5.36-5.36L66.035 85 62.5 88.535l-2.5-2.5-1.466 1.465c1.743 1.046 3.675 1.802 5.74 2.19L70 83.963l5.727 5.728c2.032-.38 3.963-1.13 5.732-2.197L80 86.035l-2.5 2.5L73.963 85 80 78.965l5.35 5.35c.475-.514.915-1.05 1.32-1.608L83.964 80l5.96-5.96c.045-.51.076-1.022.076-1.54 0-.48-.002-.97-.007-1.46L87.5 73.536zM86.033 65L82.5 68.535l-2.5-2.5-2.5 2.5L73.963 65 80 58.965 86.033 65zM80 48.964L86.033 55 82.5 58.535l-2.5-2.5-2.5 2.5L73.963 55 80 48.964zm-10-5L76.033 50 72.5 53.535l-2.5-2.5-2.5 2.5L63.962 50 70 43.964zm-10 12.07l-2.5 2.5L53.962 55 60 48.964 66.034 55 62.5 58.535l-2.5-2.5zM63.962 60L70 53.965 76.033 60 72.5 63.535l-2.5-2.5-2.5 2.5L63.962 60zm0 10L70 63.965 76.033 70 72.5 73.535l-2.5-2.5-2.5 2.5L63.962 70zM72.5 83.535l-2.5-2.5-2.5 2.5L63.962 80 70 73.965 76.033 80 72.5 83.535zm10-5l-2.5-2.5-2.5 2.5L73.963 75 80 68.965 86.033 75 82.5 78.535z"/><path d="M92.2 48.834l.084-.084-.17-.17c-2.382-7.283-6.74-13.655-14.68-15.516.033-.166.053-.336.053-.513.546-1.15 6.25-2.545 12.513-2.55 1.38 0 2.5-1.12 2.498-2.5 0-1.38-1.12-2.5-2.5-2.5-2.73 0-7.34.2-11.145 1.336 2.45-2.186 5.55-4.6 8.782-6.756 1.148-.766 1.46-2.318.693-3.467-.766-1.146-2.316-1.46-3.467-.693-2.603 1.735-7.06 4.887-10.627 8.317 2.663-6.98 7.468-11.904 7.532-11.97.977-.976.977-2.56 0-3.535-.977-.977-2.56-.977-3.535 0-.225.225-3.04 3.086-5.732 7.622V7.5c0-1.38-1.12-2.5-2.5-2.5s-2.5 1.12-2.5 2.5v8.354c-2.69-4.535-5.508-7.397-5.732-7.622-.976-.977-2.56-.977-3.535 0-.976.976-.976 2.56 0 3.535.068.067 4.89 4.98 7.548 11.984-3.57-3.436-8.036-6.593-10.643-8.33-1.15-.767-2.702-.456-3.467.692-.766 1.15-.456 2.7.693 3.467 3.234 2.155 6.336 4.57 8.787 6.756C57.344 25.2 52.732 25 50 25c-1.382 0-2.5 1.12-2.5 2.5S48.617 30 50 30c5.67 0 11.827 1.25 12.5 2.528 0 .187.027.367.068.542-5.55 1.338-11.443 5.39-14.76 15.584l-.095.095.048.047c-.05.157-.102.307-.15.466-.04.126-.073.254-.11.38l-2.167-2.166c-3.21-3.21-7.72-4.98-12.7-4.98-6.74 0-13.71 3.105-19.12 8.517-4.64 4.64-7.6 10.44-8.337 16.33-.766 6.125.94 11.626 4.803 15.488l7.186 7.187C20.426 93.277 24.848 95 29.83 95c.922 0 1.866-.06 2.823-.178 5.892-.736 11.69-3.698 16.333-8.34.172-.17.325-.354.492-.53C53.585 91.443 60.135 95 67.5 95h5c5.988 0 11.632-2.347 15.894-6.607C92.654 84.133 95 78.488 95 72.497c0-4.938-.002-14.91-2.8-23.663zM13.514 79.3c-2.748-2.75-3.947-6.773-3.377-11.333.6-4.794 3.054-9.558 6.913-13.416 4.48-4.48 10.16-7.05 15.583-7.05 3.697 0 6.867 1.215 9.166 3.514 2.747 2.748 3.946 6.772 3.376 11.332-.6 4.794-3.054 9.56-6.913 13.418-4.48 4.48-10.16 7.05-15.582 7.05-3.696 0-6.866-1.216-9.165-3.515zm38.847-9.768c-.6 4.794-3.054 9.56-6.912 13.418-3.858 3.858-8.624 6.313-13.417 6.912-3.737.47-7.106-.273-9.718-2.065.123.002.243.017.367.017 6.738 0 13.706-3.104 19.117-8.515 4.64-4.642 7.6-10.442 8.337-16.333.133-1.066.187-2.11.172-3.135 1.782 2.608 2.52 5.97 2.052 9.7zm37.563 4.507L83.965 80l2.705 2.706c-.405.56-.846 1.095-1.32 1.61L80 78.963 73.963 85l3.535 3.535 2.5-2.5 1.46 1.46c-1.77 1.067-3.7 1.816-5.733 2.197L70 83.964l-5.726 5.725c-2.065-.39-3.997-1.145-5.74-2.19L60 86.035l2.5 2.5L66.034 85 60 78.965l-5.36 5.36c-.472-.51-.912-1.047-1.32-1.61L56.036 80l-1.352-1.352c.333-.662.643-1.33.92-2.01l1.895 1.897 2.5-2.5 2.5 2.5L66.035 75 60 68.965l-2.985 2.983c.12-.597.234-1.195.31-1.795.07-.557.11-1.106.14-1.652l.035.035 2.5-2.5 2.5 2.5L66.035 65 60 58.965l-3.18 3.178c-.782-2.858-2.228-5.405-4.3-7.478l-.912-.912c.07-.302.128-.606.202-.906l.688.688L56.035 50l-2.477-2.476c.3-.698.62-1.348.957-1.972l2.983 2.983 2.5-2.5 2.5 2.5L66.035 45l-5.73-5.73c1.795-1.02 3.832-1.594 6.118-1.73L63.963 40l3.536 3.536 2.5-2.5 2.5 2.5L76.033 40l-2.456-2.457c2.345.145 4.36.76 6.09 1.752L73.964 45l3.535 3.536 2.5-2.5 2.5 2.5 2.97-2.97c.34.633.654 1.297.947 1.98L83.964 50l3.535 3.535.66-.66c.192.788.366 1.59.522 2.406L83.964 60l3.535 3.535 2.046-2.047c.085.904.156 1.81.214 2.716L83.964 70l3.535 3.535 2.493-2.494c.005.49.007.98.007 1.46 0 .518-.03 1.03-.075 1.54z"/><path d="M63.963 80l3.536 3.535 2.5-2.5 2.5 2.5L76.033 80 70 73.965M73.964 75l3.535 3.535 2.5-2.5 2.5 2.5L86.033 75 80 68.965M73.964 65l3.535 3.535 2.5-2.5 2.5 2.5L86.033 65 80 58.965M70 71.035l2.5 2.5L76.033 70 70 63.965 63.962 70l3.536 3.535M70 61.035l2.5 2.5L76.033 60 70 53.965 63.962 60l3.536 3.535M60 48.964L53.962 55l3.536 3.535 2.5-2.5 2.5 2.5L66.034 55M77.5 58.535l2.5-2.5 2.5 2.5L86.033 55 80 48.964 73.963 55M70 51.035l2.5 2.5L76.033 50 70 43.964 63.962 50l3.536 3.535M33.55 71.05c1.807-1.81 2.962-4.088 3.253-6.417.316-2.526-.44-4.912-2.076-6.547-1.385-1.385-3.307-2.147-5.413-2.147-2.685 0-5.437 1.21-7.55 3.324-3.9 3.9-4.428 9.715-1.18 12.965 1.386 1.384 3.308 2.146 5.413 2.146 2.686 0 5.44-1.213 7.552-3.327zM25.3 62.8c1.166-1.166 2.667-1.86 4.015-1.86.545 0 1.313.117 1.877.683.734.733.723 1.813.65 2.39-.152 1.215-.82 2.49-1.83 3.502-1.166 1.166-2.667 1.862-4.016 1.862-.544 0-1.312-.118-1.876-.683-1.276-1.28-.736-3.978 1.18-5.895z"/><text y="115" font-size="5" font-weight="bold" font-family="'Helvetica Neue', Helvetica, Arial-Unicode, Arial, Sans-serif">Created by Arthur Shlain</text><text y="120" font-size="5" font-weight="bold" font-family="'Helvetica Neue', Helvetica, Arial-Unicode, Arial, Sans-serif">from the Noun Project</text></svg>