<svg xmlns="http://www.w3.org/2000/svg" xmlns:xlink="http://www.w3.org/1999/xlink" version="1.1" x="0px" y="0px" viewBox="0 0 100 125" enable-background="new 0 0 100 100" xml:space="preserve"><path fill="none" d="M87.499,73.535L83.964,70l5.796-5.796c-0.058-0.905-0.129-1.812-0.214-2.716l-2.047,2.047L83.964,60  l4.719-4.719c-0.156-0.815-0.33-1.618-0.523-2.406l-0.66,0.66L83.964,50l2.453-2.453c-0.293-0.685-0.606-1.348-0.948-1.981  l-2.97,2.97l-2.5-2.5l-2.5,2.5L73.964,45l5.704-5.705c-1.729-0.993-3.745-1.607-6.09-1.752L76.034,40l-3.535,3.536l-2.5-2.5  l-2.5,2.5L63.963,40l2.461-2.46c-2.286,0.136-4.323,0.709-6.117,1.731L66.035,45l-3.536,3.536l-2.5-2.5l-2.5,2.5l-2.983-2.983  c-0.336,0.624-0.658,1.274-0.957,1.972L56.035,50l-3.536,3.535l-0.688-0.688c-0.074,0.3-0.133,0.604-0.202,0.906l0.912,0.912  c2.072,2.072,3.518,4.619,4.3,7.478l3.179-3.178L66.035,65l-3.536,3.535l-2.5-2.5l-2.5,2.5l-0.034-0.034  c-0.029,0.546-0.071,1.096-0.141,1.652c-0.075,0.6-0.188,1.198-0.31,1.795l2.984-2.983L66.035,75l-3.536,3.535l-2.5-2.5l-2.5,2.5  l-1.896-1.896c-0.276,0.678-0.586,1.347-0.919,2.009L56.035,80l-2.715,2.714c0.407,0.564,0.848,1.101,1.318,1.611l5.36-5.36  L66.035,85l-3.536,3.535l-2.5-2.5L58.534,87.5c1.743,1.046,3.675,1.802,5.74,2.189l5.725-5.725l5.728,5.728  c2.032-0.381,3.963-1.13,5.732-2.197l-1.46-1.46l-2.5,2.5L73.964,85l6.035-6.035l5.351,5.351c0.475-0.515,0.915-1.051,1.32-1.609  L83.964,80l5.961-5.961C89.969,73.529,90,73.018,90,72.5c0-0.481-0.002-0.969-0.007-1.459L87.499,73.535z M86.034,65l-3.535,3.535  l-2.5-2.5l-2.5,2.5L73.964,65l6.035-6.035L86.034,65z M79.999,48.964L86.034,55l-3.535,3.535l-2.5-2.5l-2.5,2.5L73.964,55  L79.999,48.964z M69.999,43.964L76.034,50l-3.535,3.535l-2.5-2.5l-2.5,2.5L63.963,50L69.999,43.964z M59.999,56.035l-2.5,2.5  L53.963,55l6.036-6.036L66.035,55l-3.536,3.535L59.999,56.035z M63.963,60l6.036-6.035L76.034,60l-3.535,3.535l-2.5-2.5l-2.5,2.5  L63.963,60z M63.963,70l6.036-6.035L76.034,70l-3.535,3.535l-2.5-2.5l-2.5,2.5L63.963,70z M72.499,83.535l-2.5-2.5l-2.5,2.5  L63.963,80l6.036-6.035L76.034,80L72.499,83.535z M82.499,78.535l-2.5-2.5l-2.5,2.5L73.964,75l6.035-6.035L86.034,75L82.499,78.535z  "/><path d="M92.199,48.834l0.085-0.084l-0.171-0.17c-2.381-7.283-6.739-13.655-14.68-15.516c0.034-0.166,0.054-0.336,0.054-0.513  C78.033,31.399,83.736,30.005,90,30c1.38-0.001,2.499-1.121,2.498-2.501c0-1.38-1.119-2.499-2.499-2.499  c-2.731,0-7.342,0.199-11.146,1.336c2.45-2.186,5.55-4.6,8.782-6.756c1.148-0.766,1.459-2.318,0.693-3.467  c-0.766-1.146-2.316-1.46-3.467-0.693c-2.604,1.735-7.06,4.887-10.628,8.317c2.663-6.979,7.468-11.904,7.532-11.97  c0.977-0.976,0.977-2.559,0-3.535c-0.977-0.977-2.559-0.977-3.535,0c-0.225,0.225-3.041,3.086-5.732,7.622V7.5  c0-1.381-1.119-2.5-2.5-2.5s-2.5,1.119-2.5,2.5v8.354c-2.69-4.535-5.508-7.397-5.732-7.622c-0.976-0.977-2.56-0.977-3.535,0  c-0.977,0.976-0.977,2.559,0,3.535c0.067,0.067,4.888,4.98,7.547,11.984c-3.57-3.437-8.036-6.594-10.643-8.332  c-1.149-0.766-2.702-0.455-3.467,0.693c-0.766,1.149-0.456,2.701,0.693,3.467c3.233,2.156,6.335,4.571,8.786,6.757  C57.344,25.2,52.732,25,49.999,25c-1.381,0-2.5,1.119-2.5,2.5s1.119,2.5,2.5,2.5c5.671,0,11.828,1.249,12.5,2.528  c0.002,0.187,0.028,0.367,0.069,0.542c-5.551,1.338-11.443,5.39-14.76,15.584l-0.095,0.095l0.048,0.048  c-0.05,0.157-0.103,0.307-0.152,0.466c-0.039,0.126-0.072,0.254-0.109,0.381l-2.167-2.167c-3.21-3.21-7.721-4.979-12.701-4.979  c-6.739,0-13.708,3.104-19.118,8.516c-4.641,4.64-7.602,10.439-8.338,16.331c-0.766,6.124,0.94,11.625,4.803,15.487l7.187,7.187  c3.259,3.259,7.682,4.982,12.663,4.982c0.923,0,1.867-0.06,2.824-0.179c5.892-0.736,11.691-3.698,16.333-8.339  c0.172-0.172,0.325-0.355,0.492-0.53C53.585,91.442,60.135,95,67.5,95h5c5.988,0,11.632-2.347,15.894-6.607  c4.261-4.261,6.607-9.905,6.606-15.896C94.999,67.559,94.998,57.586,92.199,48.834z M13.515,79.299  c-2.748-2.748-3.947-6.772-3.377-11.332c0.599-4.794,3.054-9.558,6.913-13.416C21.53,50.07,27.21,47.5,32.633,47.5  c3.697,0,6.867,1.215,9.166,3.514c2.748,2.748,3.947,6.772,3.377,11.332c-0.6,4.794-3.054,9.559-6.913,13.418  c-4.48,4.48-10.159,7.05-15.582,7.05C18.984,82.813,15.814,81.598,13.515,79.299z M52.362,69.532  c-0.599,4.794-3.054,9.559-6.912,13.418c-3.858,3.858-8.624,6.313-13.417,6.912c-3.737,0.469-7.106-0.273-9.718-2.065  c0.123,0.002,0.243,0.017,0.367,0.017c6.738,0,13.706-3.104,19.117-8.515c4.64-4.641,7.602-10.441,8.338-16.332  c0.133-1.066,0.187-2.111,0.172-3.135C52.092,62.44,52.829,65.801,52.362,69.532z M89.925,74.039L83.964,80l2.706,2.706  c-0.405,0.559-0.846,1.095-1.32,1.609l-5.351-5.351L73.964,85l3.535,3.535l2.5-2.5l1.46,1.46c-1.77,1.067-3.7,1.816-5.732,2.197  l-5.728-5.728l-5.725,5.725c-2.065-0.388-3.997-1.144-5.74-2.189l1.465-1.465l2.5,2.5L66.035,85l-6.036-6.035l-5.36,5.36  c-0.471-0.511-0.911-1.047-1.318-1.611L56.035,80l-1.352-1.352c0.333-0.662,0.643-1.331,0.919-2.009l1.896,1.896l2.5-2.5l2.5,2.5  L66.035,75l-6.036-6.035l-2.984,2.983c0.121-0.597,0.234-1.195,0.31-1.795c0.069-0.557,0.111-1.106,0.141-1.652l0.034,0.034l2.5-2.5  l2.5,2.5L66.035,65l-6.036-6.035l-3.179,3.178c-0.782-2.858-2.228-5.405-4.3-7.478l-0.912-0.912  c0.069-0.302,0.128-0.606,0.202-0.906l0.688,0.688L56.035,50l-2.477-2.476c0.299-0.698,0.621-1.348,0.957-1.972l2.983,2.983l2.5-2.5  l2.5,2.5L66.035,45l-5.729-5.729c1.794-1.022,3.831-1.595,6.117-1.731L63.963,40l3.536,3.536l2.5-2.5l2.5,2.5L76.034,40  l-2.456-2.457c2.345,0.145,4.36,0.759,6.09,1.752L73.964,45l3.535,3.536l2.5-2.5l2.5,2.5l2.97-2.97  c0.342,0.633,0.655,1.297,0.948,1.981L83.964,50l3.535,3.535l0.66-0.66c0.193,0.788,0.367,1.591,0.523,2.406L83.964,60l3.535,3.535  l2.047-2.047c0.085,0.904,0.156,1.811,0.214,2.716L83.964,70l3.535,3.535l2.494-2.494C89.998,71.531,90,72.019,90,72.5  C90,73.018,89.969,73.529,89.925,74.039z"/><polygon points="63.963,80 67.499,83.535 69.999,81.035 72.499,83.535 76.034,80 69.999,73.965 "/><polygon points="73.964,75 77.499,78.535 79.999,76.035 82.499,78.535 86.034,75 79.999,68.965 "/><polygon points="73.964,65 77.499,68.535 79.999,66.035 82.499,68.535 86.034,65 79.999,58.965 "/><polygon points="69.999,71.035 72.499,73.535 76.034,70 69.999,63.965 63.963,70 67.499,73.535 "/><polygon points="69.999,61.035 72.499,63.535 76.034,60 69.999,53.965 63.963,60 67.499,63.535 "/><polygon points="59.999,48.964 53.963,55 57.499,58.535 59.999,56.035 62.499,58.535 66.035,55 "/><polygon points="77.499,58.535 79.999,56.035 82.499,58.535 86.034,55 79.999,48.964 73.964,55 "/><polygon points="69.999,51.035 72.499,53.535 76.034,50 69.999,43.964 63.963,50 67.499,53.535 "/><path d="M33.549,71.049c1.808-1.809,2.963-4.087,3.254-6.416c0.316-2.526-0.441-4.912-2.076-6.547  c-1.385-1.385-3.307-2.147-5.413-2.147c-2.685,0-5.437,1.212-7.551,3.325c-3.898,3.899-4.427,9.715-1.178,12.965  c1.385,1.385,3.307,2.147,5.412,2.147C28.683,74.376,31.436,73.163,33.549,71.049z M25.3,62.799c1.166-1.165,2.667-1.86,4.015-1.86  c0.545,0,1.313,0.118,1.877,0.684c0.734,0.733,0.723,1.813,0.65,2.391c-0.152,1.214-0.819,2.49-1.83,3.501  c-1.166,1.166-2.667,1.862-4.016,1.862c-0.544,0-1.312-0.118-1.876-0.683C22.844,67.415,23.384,64.716,25.3,62.799z"/><text x="0" y="115" fill="#000000" font-size="5px" font-weight="bold" font-family="'Helvetica Neue', Helvetica, Arial-Unicode, Arial, Sans-serif">Created by Arthur Shlain</text><text x="0" y="120" fill="#000000" font-size="5px" font-weight="bold" font-family="'Helvetica Neue', Helvetica, Arial-Unicode, Arial, Sans-serif">from the Noun Project</text></svg>